<svg width="185" height="183" viewBox="0 0 185 183" fill="none" xmlns="http://www.w3.org/2000/svg">
<path fill-rule="evenodd" clip-rule="evenodd" d="M113.526 29.9489C113.526 37.2449 109.796 43.6698 104.139 47.4208L154.019 133.816C156.793 132.461 159.91 131.701 163.204 131.701C174.774 131.701 184.153 141.08 184.153 152.65C184.153 164.219 174.774 173.599 163.204 173.599C152.228 173.599 143.223 165.157 142.328 154.411L42.8618 153.888C42.2212 164.881 33.1031 173.599 21.9489 173.599C10.3791 173.599 1 164.219 1 152.65C1 141.08 10.3791 131.701 21.9489 131.701C25.2436 131.701 28.3607 132.461 31.1341 133.817L81.0146 47.421C75.3576 43.67 71.6277 37.245 71.6277 29.9489C71.6277 18.3791 81.0069 9 92.5766 9C104.146 9 113.526 18.3791 113.526 29.9489ZM92.5766 50.8978C91.5327 50.8978 90.5065 50.8214 89.5035 50.674L78.5925 69.5724H106.561L95.6501 50.674C94.6469 50.8214 93.6207 50.8978 92.5766 50.8978ZM136.009 120.577L121.721 145.324L143.529 145.439C144.329 143.257 145.482 141.245 146.918 139.473L136.009 120.577ZM63.2545 145.017L49.1446 120.578L38.2355 139.473C39.5529 141.099 40.6316 142.926 41.4184 144.902L63.2545 145.017ZM80.6357 29.9489C80.6357 36.5437 85.9818 41.8898 92.5766 41.8898C99.1714 41.8898 104.517 36.5437 104.517 29.9489C104.517 23.3541 99.1714 18.008 92.5766 18.008C85.9818 18.008 80.6357 23.3541 80.6357 29.9489ZM10.008 152.65C10.008 159.244 15.3541 164.591 21.9489 164.591C28.5437 164.591 33.8898 159.244 33.8898 152.65C33.8898 146.055 28.5437 140.709 21.9489 140.709C15.3541 140.709 10.008 146.055 10.008 152.65ZM163.204 164.591C156.61 164.591 151.264 159.244 151.264 152.65C151.264 146.055 156.61 140.709 163.204 140.709C169.799 140.709 175.145 146.055 175.145 152.65C175.145 159.244 169.799 164.591 163.204 164.591ZM111.079 143.697H74.0743L55.5719 111.65L74.0743 79.6026H111.079L129.581 111.65L111.079 143.697Z" fill="white" stroke="black"/>
</svg>
