<svg width="168" height="167" viewBox="0 0 168 167" fill="none" xmlns="http://www.w3.org/2000/svg">
<path fill-rule="evenodd" clip-rule="evenodd" d="M102.92 27.1606C102.92 33.8337 99.5083 39.7101 94.3344 43.141L139.957 122.161C142.493 120.922 145.344 120.226 148.358 120.226C158.94 120.226 167.518 128.805 167.518 139.387C167.518 149.969 158.94 158.547 148.358 158.547C138.318 158.547 130.082 150.826 129.264 140.998L38.2883 140.519C37.7023 150.574 29.3626 158.547 19.1606 158.547C8.57849 158.547 0 149.969 0 139.387C0 128.805 8.57849 120.226 19.1606 120.226C22.174 120.226 25.025 120.922 27.5617 122.161L73.1841 43.1411C68.01 39.7103 64.5985 33.8338 64.5985 27.1606C64.5985 16.5785 73.177 8 83.7591 8C94.3412 8 102.92 16.5785 102.92 27.1606ZM83.7591 46.3212C82.8042 46.3212 81.8657 46.2513 80.9483 46.1165L70.9687 63.4016H96.5498L86.5702 46.1164C85.6527 46.2513 84.7141 46.3212 83.7591 46.3212ZM123.484 110.052L110.416 132.687L130.362 132.792C131.094 130.796 132.148 128.956 133.462 127.335L123.484 110.052ZM56.9401 132.405L44.0347 110.053L34.0569 127.335C35.2618 128.822 36.2484 130.494 36.968 132.3L56.9401 132.405ZM72.8376 27.1606C72.8376 33.1924 77.7273 38.0821 83.7591 38.0821C89.7909 38.0821 94.6806 33.1924 94.6806 27.1606C94.6806 21.1288 89.7909 16.2391 83.7591 16.2391C77.7273 16.2391 72.8376 21.1288 72.8376 27.1606ZM8.23905 139.387C8.23905 145.419 13.1288 150.308 19.1606 150.308C25.1924 150.308 30.0821 145.419 30.0821 139.387C30.0821 133.355 25.1924 128.465 19.1606 128.465C13.1288 128.465 8.23905 133.355 8.23905 139.387ZM148.358 150.308C142.326 150.308 137.436 145.419 137.436 139.387C137.436 133.355 142.326 128.465 148.358 128.465C154.389 128.465 159.279 133.355 159.279 139.387C159.279 145.419 154.389 150.308 148.358 150.308ZM117.605 101.887L100.682 131.198H66.8363L49.9134 101.887L66.8363 72.5756H100.682L117.605 101.887Z" fill="black"/>
</svg>
