<svg width="1333" height="1198" viewBox="0 0 1333 1198" fill="none" xmlns="http://www.w3.org/2000/svg">
<line x1="690.09" y1="241.205" x2="1112.43" y2="972.719" stroke="white" stroke-width="65.3102"/>
<line x1="248.351" y1="1021.66" x2="1084.32" y2="1026.06" stroke="white" stroke-width="65.3102"/>
<line x1="219.899" y1="972.722" x2="642.238" y2="241.209" stroke="white" stroke-width="65.3102"/>
<path d="M304.781 1045.61C304.781 1129.77 236.553 1198 152.391 1198C68.2276 1198 0 1129.77 0 1045.61C0 961.447 68.2276 893.219 152.391 893.219C236.553 893.219 304.781 961.447 304.781 1045.61ZM65.5279 1045.61C65.5279 1093.58 104.418 1132.47 152.391 1132.47C200.363 1132.47 239.253 1093.58 239.253 1045.61C239.253 997.637 200.363 958.747 152.391 958.747C104.418 958.747 65.5279 997.637 65.5279 1045.61Z" fill="white"/>
<path d="M1332.33 1045.61C1332.33 1129.77 1264.1 1198 1179.94 1198C1095.77 1198 1027.55 1129.77 1027.55 1045.61C1027.55 961.447 1095.77 893.219 1179.94 893.219C1264.1 893.219 1332.33 961.447 1332.33 1045.61ZM1093.08 1045.61C1093.08 1093.58 1131.96 1132.47 1179.94 1132.47C1227.91 1132.47 1266.8 1093.58 1266.8 1045.61C1266.8 997.637 1227.91 958.747 1179.94 958.747C1131.96 958.747 1093.08 997.637 1093.08 1045.61Z" fill="white"/>
<path d="M818.555 153.036C818.555 237.199 750.327 305.427 666.164 305.427C582.001 305.427 513.774 237.199 513.774 153.036C513.774 68.8735 582.001 0.645996 666.164 0.645996C750.327 0.645996 818.555 68.8735 818.555 153.036ZM579.302 153.036C579.302 201.009 618.191 239.899 666.164 239.899C714.137 239.899 753.027 201.009 753.027 153.036C753.027 105.064 714.137 66.1739 666.164 66.1739C618.191 66.1739 579.302 105.064 579.302 153.036Z" fill="white"/>
<path d="M354.852 747.359L510.508 477.755H821.82L977.476 747.359L821.82 1016.96H510.508L354.852 747.359Z" stroke="white" stroke-width="72.9638"/>
</svg>
