<svg xmlns="http://www.w3.org/2000/svg" width="168" height="168">
  <path fill-rule="evenodd" d="M102.92 28.16c0 6.674-3.412 12.55-8.586 15.981l45.623 79.02a19.086 19.086 0 0 1 8.401-1.935c10.582 0 19.16 8.579 19.16 19.161s-8.578 19.16-19.16 19.16c-10.04 0-18.276-7.721-19.094-17.549l-90.976-.479c-.586 10.055-8.925 18.028-19.127 18.028C8.578 159.547 0 150.969 0 140.387s8.578-19.161 19.16-19.161c3.014 0 5.865.696 8.402 1.935l45.622-79.02c-5.174-3.43-8.585-9.307-8.585-15.98C64.599 17.578 73.177 9 83.758 9s19.161 8.578 19.161 19.16ZM83.76 47.322c-.956 0-1.894-.07-2.812-.204l-9.98 17.285H96.55l-9.98-17.286c-.917.135-1.856.205-2.81.205Zm39.724 63.731-13.068 22.635 19.946.105a19.123 19.123 0 0 1 3.1-5.457l-9.978-17.283ZM56.94 133.405l-12.905-22.352-9.978 17.282a19.146 19.146 0 0 1 2.911 4.965l19.972.105ZM72.838 28.161c0 6.031 4.89 10.921 10.921 10.921 6.032 0 10.922-4.89 10.922-10.921 0-6.032-4.89-10.922-10.922-10.922-6.032 0-10.921 4.89-10.921 10.922ZM8.239 140.387c0 6.032 4.89 10.921 10.922 10.921 6.031 0 10.921-4.889 10.921-10.921 0-6.032-4.89-10.922-10.921-10.922-6.032 0-10.922 4.89-10.922 10.922Zm140.119 10.921c-6.032 0-10.922-4.889-10.922-10.921 0-6.032 4.89-10.922 10.922-10.922 6.031 0 10.921 4.89 10.921 10.922 0 6.032-4.89 10.921-10.921 10.921Zm-30.753-48.421-16.923 29.311H66.836l-16.923-29.311 16.923-29.311h33.846l16.923 29.311Z" clip-rule="evenodd"/>
</svg>